<?xml version="1.0" encoding="utf-8"?>
<!-- Generator: Adobe Illustrator 24.0.2, SVG Export Plug-In . SVG Version: 6.00 Build 0)  -->
<svg version="1.1" id="Layer_1" xmlns="http://www.w3.org/2000/svg" xmlns:xlink="http://www.w3.org/1999/xlink" x="0px" y="0px"
	 viewBox="0 0 560 400" style="enable-background:new 0 0 560 400;" xml:space="preserve">
<style type="text/css">
	.st0{fill-rule:evenodd;clip-rule:evenodd;fill:#12173F;}
	.st1{fill-rule:evenodd;clip-rule:evenodd;fill:#FFFFFF;}
	.st2{fill-rule:evenodd;clip-rule:evenodd;fill:#5D76A9;}
	.st3{fill-rule:evenodd;clip-rule:evenodd;fill:#707271;}
	.st4{fill-rule:evenodd;clip-rule:evenodd;fill:#FFBB22;}
</style>
<path class="st0" d="M126.9,476.3c0-7.1-5.9-13-13-13H89.7v45.6h10.6v-14.3h9.9c3.1,0.1,5.6,2.7,5.7,5.8v8.4h10.6v-8.4
	c0-3.6-1.2-7-3.3-9.9c2.4-2.5,3.8-5.8,3.8-9.2L126.9,476.3L126.9,476.3z"/>
<path class="st1" d="M113.9,473.9c1.3,0,2.3,1.1,2.4,2.4v5.2c0,1.5-1.2,2.7-2.7,2.7h-13.3V474h13.6V473.9L113.9,473.9z"/>
<polygon class="st0" points="365.9,508.9 328.1,508.9 328.1,463.3 338.7,463.3 338.7,498.3 365.9,498.3 365.9,508.9 "/>
<polygon class="st0" points="471,473.9 471,463.3 433.2,463.3 433.2,508.9 471,508.9 471,498.3 443.9,498.3 443.9,490.9 
	467.2,490.9 467.2,480.3 443.9,480.3 443.9,473.9 471,473.9 "/>
<polygon class="st0" points="232.2,508.9 191.2,508.9 214.7,473.9 193.8,473.9 193.8,463.3 234.7,463.3 211.2,498.3 232.2,498.3 
	232.2,508.9 "/>
<polygon class="st0" points="298.1,508.9 257.1,508.9 280.6,473.9 259.7,473.9 259.7,463.3 300.5,463.3 277,498.3 298.1,498.3 "/>
<rect x="392.4" y="463.3" class="st0" width="10.6" height="45.6"/>
<rect x="155.1" y="463.3" class="st0" width="10.6" height="45.6"/>
<rect x="155.1" y="463.3" class="st0" width="10.6" height="45.6"/>
<path class="st0" d="M335.5,363.5h-38.8v83.5h19.2v-26.8h19.6c12.8,0,23.4-10.6,23.4-23.4v-9.9C358.9,374,348.3,363.5,335.5,363.5
	L335.5,363.5z"/>
<path class="st1" d="M339.7,396.7c0,2.3-1.9,4.2-4.2,4.2h-19.6v-18.2h19.6c2.3,0,4.2,1.9,4.2,4.2V396.7z"/>
<path class="st2" d="M307.1,446.9h-1.6v-74.7h30c8,0,14.6,6.6,14.6,14.6v9.9c0,8-6.6,14.6-14.6,14.6h-28.4V446.9L307.1,446.9z
	 M307.1,409.7h28.5c7.1,0,13-5.8,13-13v-9.9c0-7.1-5.8-13-13-13h-28.5V409.7L307.1,409.7z"/>
<path class="st0" d="M187.1,382.7v-19.2h-63.3v83.5h63.2v-19.1h-44v-13h37.2v-19.2H143v-13L187.1,382.7L187.1,382.7z"/>
<path class="st2" d="M187.1,373.9v-1.6h-54.5v65.9h54.4v-1.5h-52.8V406h46v-1.6h-46v-30.6L187.1,373.9L187.1,373.9z"/>
<path class="st0" d="M263.1,363.6h-66.2v83.3h19.2v-64.1h16V447h19.2v-64.3h11.8c2.3,0,4.2,1.9,4.2,4.2v60h19.2v-60
	C286.5,374.1,275.9,363.6,263.1,363.6"/>
<path class="st2" d="M263.1,372.4h-57.4v74.6h1.6V374h33.6v73h1.6v-73h20.6c7.1,0,13,5.8,13,13v60h1.6v-60
	C277.7,378.9,271.1,372.4,263.1,372.4"/>
<path class="st0" d="M90.1,363.6H23.9v83.3h19.2v-64.1h16V447h19.2v-64.3h11.8c2.3,0,4.2,1.9,4.2,4.2v60h19.2v-60
	C113.4,374.1,102.9,363.6,90.1,363.6"/>
<path class="st2" d="M90.1,372.4H32.7v74.6h1.6V374h33.6v73h1.6v-73h20.6c7.1,0,13,5.8,13,13v60h1.6v-60
	C104.7,378.9,98.1,372.4,90.1,372.4"/>
<path class="st0" d="M442.5,363.5h19.2v83.5h-19.2V363.5z"/>
<path class="st2" d="M451.3,363.5h1.6v83.5h-1.6V363.5z"/>
<path class="st0" d="M410.9,363.5v32.2H387v-32.2h-19.1v83.5H387v-32.1h23.9v32.1H430v-83.5H410.9z"/>
<path class="st2" d="M419.6,363.5v41h-41.4v-41h-1.5v83.5h1.5V406h41.4v40.9h1.6v-83.5H419.6z"/>
<path class="st0" d="M61.1,508.9H36.9c-7.1,0-13-5.9-13-13v-19.6c0-7.1,5.9-13,13-13h11.3c7.1,0,13,5.9,13,13v2.1H50.5v-2.1
	c0-1.3-1.1-2.3-2.4-2.4H36.9c-1.3,0-2.4,1.1-2.4,2.4v19.6c0,1.3,1.1,2.4,2.4,2.4h13.6v-4.2h-6.3v-10.6h16.9L61.1,508.9L61.1,508.9z"
	/>
<path class="st0" d="M61.1,508.9H36.9c-7.1,0-13-5.9-13-13v-19.6c0-7.1,5.9-13,13-13h11.3c7.1,0,13,5.9,13,13v2.1H50.5v-2.1
	c0-1.3-1.1-2.3-2.4-2.4H36.9c-1.3,0-2.4,1.1-2.4,2.4v19.6c0,1.3,1.1,2.4,2.4,2.4h13.6v-4.2h-6.3v-10.6h16.9L61.1,508.9L61.1,508.9z"
	/>
<path class="st0" d="M522.8,508.9h-11.4c-7.1,0-13-5.9-13-13v-1.6h10.6v1.6c0,1.3,1.1,2.4,2.4,2.4h11.4c1.3,0,2.4-1.1,2.4-2.4V494
	l-19.7-5.3c-4.1-1.3-6.9-5.1-6.9-9.3v-2.8c0-7.3,6-13.3,13.3-13.3h11.1c7.1,0,13,5.9,13,13v2.1h-10.6v-2.1c0-1.3-1.1-2.4-2.4-2.4
	h-11.1c-1.5,0-2.7,1.2-2.7,2.7v2.2l19.7,5.3c4.1,1.3,6.9,5.1,6.9,9.3v2.6C535.8,503.1,529.9,508.9,522.8,508.9L522.8,508.9"/>
<path class="st0" d="M512.5,446.8h-39.4v-26.5h19.2v7.4h20.2c2.4,0,4.3-2,4.3-4.3v-3.9l-31.3-9.7c-7.4-2.2-12.4-9-12.4-16.7v-6
	c0-12.9,10.7-23.6,23.6-23.6h39.4V391h-19.2v-8.4h-20.2c-2.4,0-4.3,2-4.3,4.3v4.9l31.2,9.5c7.5,2.2,12.6,9.2,12.6,16.9v4.8
	C536.1,436.1,525.4,446.8,512.5,446.8"/>
<path class="st2" d="M512.5,438h-30.6v-17.8h1.6v16.2h29c7.2,0,13.2-6,13.2-13.2v-4.8c0-3.2-2.2-6.1-5.3-7.1l-32.3-10
	c-3.7-1.1-6.2-4.5-6.2-8.4v-6c0-8.1,6.7-14.8,14.8-14.8h30.6v18.8h-1.7v-17.2h-29c-7.2,0-13.2,6-13.2,13.2v6c0,3.1,2,5.9,5,6.9
	l32.3,10c3.8,1.2,6.3,4.7,6.3,8.6v4.8l0,0.3C527.1,431.5,520.5,438,512.5,438L512.5,438"/>
<path class="st3" d="M482.6-6.3c5.4-9.9,8.4-20.9,8.5-32.2c-0.5-23.3-12.4-44.9-31.9-57.7c-26-17.6-64.8-20.1-92.4,12.9
	c-29.3-3.8-59.2,0-86.7,10.8c-27.5-10.9-57.3-14.6-86.7-10.8c-27.6-32.9-66.5-30.5-92.4-12.9C81.7-83.4,69.7-61.8,69.3-38.5
	c0.2,11.3,3.1,22.3,8.5,32.2C56.9,23.6,42.6,59.2,42.6,95.4c0,43.6,18.7,66.1,25.6,75.7l5.6-5.6c19.7,50.2,53.4,77.2,94.2,101.8
	c0,0,0.9-4.9,1.7-9.4c43.9,38,64.8,28.6,110.4,80.2c45.5-51.4,66.9-42.6,110.4-80.2c0.9,4.4,1.7,9.4,1.7,9.4
	c18.1-10.9,69.3-38.4,94.2-101.8l5.6,5.6c4.3-5.9,25.6-29.7,25.6-75.7C517.8,59.2,503.4,23.7,482.6-6.3"/>
<path class="st0" d="M470-5.7c41.8-64.3-53.1-131.1-99-66.4c-30.7-5-62.3-1.2-90.9,11.2c-28.6-12.3-60.1-16.2-90.9-11.2
	c-46-64.7-140.8,2.1-99,66.4c-47.6,65.4-42.9,130-20.8,160.4l9.1-9.1c0,0,13,63.1,81.6,104.6l2.5-13.6
	c42.3,45.2,80.9,44.1,117.4,85.4c36.5-41.2,75.1-40.2,117.4-85.4l2.5,13.6c68.7-41.4,81.6-104.6,81.6-104.6l9.1,9.1
	C513,124.2,517.8,59.9,470-5.7"/>
<path class="st2" d="M280.6,234.5c0,0-32.9,0.5-37.9,3.5c0,0-5.7,9.8,37.9,9.7c41.4-0.2,35.3-7.7,35.6-8.9
	C304.6,235.8,292.6,234.3,280.6,234.5 M252.1,196.2c0,0,5.2-14.9,10.6-10.2c7.6,6.5,17.5,19.8,17.5,21.2V225l-12,0.6
	c-9.8,1.3-19.6,3.1-29.2,5.5c-30.7-75.9-13.6-133.3-5.5-153.9c-30.4,6.5-35.3-29.9-35.3-29.9c4.6-0.2,9.1,0.9,13.1,3.2
	c9,4.6,17.4,10.1,25.3,16.4c2.3,1.7,4.3,3.4,6.2,5c20.7,17.4,37.4,13.8,37.4,13.8v74.3C280.2,160.2,219.9,155.5,252.1,196.2
	 M308.6,196.2c38.4-38.9-24.2-36.7-28.2-36C286.8,160.5,335.3,160.8,308.6,196.2 M334,78.4c34.5,93-9.2,152.9-9.5,153.2
	c27.1-71.2,9.8-130.3-2.1-152.3c-4.5,0.4-8.9,0.5-13.4,0.2c5.3-3.3,10.4-7,15.1-11l1.4-1.3c7.6-7,16.3-12.6,25.9-16.5
	c4.2-1.6,8.7-2.8,13.2-3.3C369,46.8,361.3,78,334,78.4"/>
<path class="st2" d="M388.7-41.9c0,0,14.1-35.2,57.3-26.7c0,0-39.7-26.1-67.3,21c0,0-39.6-18.6-98.6,7c0,0-55.5-19.5-97.6-8.5
	c0,0-24.6-42.7-59.2-25.1s-16.5,58.1-10.5,68.8c0,0-57.4,58.5-35.8,130.7l11.6-14.4c0,0,16.5,78.7,59,103.5l2.6-19.3
	c0,0,44.4,53.5,96.5,76.3c4.9,2.4,32.6,16.1,33.5,22.8v-37.4c0,0-36.2,3-45.8-13.7c-6.5-11.4-48.2-85.6-27.6-163.4
	c0,0-20.1-3-23.8-36.8c-10.5-4.6-22-6.6-33.5-5.8c-11.5,0.8,33.1-10.4,64.3,1.6c31.1,12,39.5,42.7,60.5,29.2l5.8-86.4l6.3,86.4
	c21,13.5,29.4-17.1,60.5-29.2c31.1-12,64.4-1.6,64.4-1.6c-10.6-6.7-22.3-11.3-34.6-13.6c-17.8-3.5-44,7.8-44,7.8s3.6-24.5,15.6-37.5
	C358.5-17.6,381.6-20,388.7-41.9L388.7-41.9z M120.3-12.2C119-24,134-35.6,134-35.6c-6.1-6.3-16.8-0.9-16.8-0.9
	c9.7-19,31.4-9.7,31.4-9.7c-8.3-10.1-25.6-9.4-25.6-9.4c21.6-21.5,47.6,11.3,47.6,11.3C147.4-39,120.3-12.2,120.3-12.2z"/>
<path class="st4" d="M236.6,67c-3.3-1.1-8.8,2.4-11.9,8.4c-10.3-3-13.8-14.2-13.4-24.8C220.3,55.2,228.7,60.7,236.6,67 M337.9,75.3
	c-3.2-6.3-9.1-9.8-12.4-8.2c7.6-7,16.3-12.6,25.9-16.5C351.7,61.3,348.2,72.4,337.9,75.3"/>
</svg>
